G04 EAGLE Gerber RS-274X export*
G75*
%MOMM*%
%FSLAX34Y34*%
%LPD*%
%INSilkscreen Top*%
%IPPOS*%
%AMOC8*
5,1,8,0,0,1.08239X$1,22.5*%
G01*
%ADD10C,0.304800*%
%ADD11C,0.025400*%
%ADD12C,0.254000*%
%ADD13C,0.101600*%
%ADD14C,0.203200*%
%ADD15C,0.152400*%
%ADD16R,0.762000X0.127000*%
%ADD17C,0.500000*%
%ADD18C,0.050800*%

G36*
X196889Y117861D02*
X196889Y117861D01*
X196909Y117859D01*
X197010Y117884D01*
X197112Y117903D01*
X197129Y117913D01*
X197148Y117917D01*
X197236Y117973D01*
X197326Y118024D01*
X197343Y118041D01*
X197356Y118049D01*
X197376Y118074D01*
X197444Y118142D01*
X199984Y121317D01*
X199999Y121343D01*
X200020Y121365D01*
X200059Y121450D01*
X200105Y121532D01*
X200111Y121561D01*
X200123Y121588D01*
X200133Y121681D01*
X200151Y121773D01*
X200147Y121803D01*
X200150Y121832D01*
X200130Y121924D01*
X200118Y122017D01*
X200104Y122044D01*
X200098Y122073D01*
X200050Y122153D01*
X200008Y122237D01*
X199987Y122258D01*
X199972Y122284D01*
X199900Y122345D01*
X199834Y122411D01*
X199808Y122424D01*
X199785Y122444D01*
X199698Y122479D01*
X199614Y122521D01*
X199584Y122525D01*
X199557Y122536D01*
X199390Y122554D01*
X194310Y122554D01*
X194281Y122549D01*
X194251Y122552D01*
X194160Y122530D01*
X194067Y122515D01*
X194041Y122501D01*
X194012Y122494D01*
X193933Y122443D01*
X193850Y122399D01*
X193829Y122378D01*
X193804Y122362D01*
X193745Y122289D01*
X193681Y122221D01*
X193668Y122194D01*
X193649Y122171D01*
X193616Y122083D01*
X193577Y121998D01*
X193574Y121968D01*
X193563Y121941D01*
X193560Y121847D01*
X193550Y121754D01*
X193556Y121724D01*
X193555Y121695D01*
X193582Y121605D01*
X193602Y121513D01*
X193617Y121488D01*
X193626Y121459D01*
X193716Y121317D01*
X196256Y118142D01*
X196333Y118073D01*
X196406Y118000D01*
X196424Y117991D01*
X196438Y117978D01*
X196534Y117936D01*
X196626Y117890D01*
X196646Y117888D01*
X196664Y117880D01*
X196767Y117871D01*
X196870Y117857D01*
X196889Y117861D01*
G37*
G36*
X187354Y117481D02*
X187354Y117481D01*
X187384Y117478D01*
X187475Y117500D01*
X187568Y117516D01*
X187594Y117529D01*
X187623Y117536D01*
X187702Y117587D01*
X187785Y117631D01*
X187806Y117652D01*
X187831Y117668D01*
X187890Y117741D01*
X187955Y117809D01*
X187967Y117836D01*
X187986Y117859D01*
X188019Y117947D01*
X188058Y118032D01*
X188061Y118062D01*
X188072Y118089D01*
X188075Y118183D01*
X188085Y118276D01*
X188079Y118306D01*
X188080Y118335D01*
X188053Y118425D01*
X188033Y118517D01*
X188018Y118542D01*
X188009Y118571D01*
X187919Y118713D01*
X185379Y121888D01*
X185302Y121957D01*
X185229Y122030D01*
X185212Y122039D01*
X185197Y122052D01*
X185101Y122094D01*
X185009Y122140D01*
X184989Y122142D01*
X184971Y122150D01*
X184868Y122159D01*
X184765Y122173D01*
X184746Y122169D01*
X184726Y122171D01*
X184625Y122146D01*
X184523Y122127D01*
X184506Y122117D01*
X184487Y122113D01*
X184400Y122057D01*
X184309Y122006D01*
X184292Y121989D01*
X184279Y121981D01*
X184259Y121956D01*
X184191Y121888D01*
X181651Y118713D01*
X181636Y118687D01*
X181616Y118665D01*
X181576Y118580D01*
X181530Y118498D01*
X181524Y118469D01*
X181512Y118442D01*
X181502Y118349D01*
X181484Y118257D01*
X181488Y118227D01*
X181485Y118198D01*
X181505Y118106D01*
X181518Y118013D01*
X181531Y117986D01*
X181537Y117957D01*
X181585Y117877D01*
X181627Y117793D01*
X181648Y117772D01*
X181663Y117746D01*
X181735Y117685D01*
X181801Y117619D01*
X181827Y117606D01*
X181850Y117586D01*
X181937Y117551D01*
X182021Y117509D01*
X182051Y117505D01*
X182078Y117494D01*
X182245Y117476D01*
X187325Y117476D01*
X187354Y117481D01*
G37*
G36*
X211484Y117481D02*
X211484Y117481D01*
X211514Y117478D01*
X211605Y117500D01*
X211698Y117516D01*
X211724Y117529D01*
X211753Y117536D01*
X211832Y117587D01*
X211915Y117631D01*
X211936Y117652D01*
X211961Y117668D01*
X212020Y117741D01*
X212085Y117809D01*
X212097Y117836D01*
X212116Y117859D01*
X212149Y117947D01*
X212188Y118032D01*
X212191Y118062D01*
X212202Y118089D01*
X212205Y118183D01*
X212215Y118276D01*
X212209Y118306D01*
X212210Y118335D01*
X212183Y118425D01*
X212163Y118517D01*
X212148Y118542D01*
X212139Y118571D01*
X212049Y118713D01*
X209509Y121888D01*
X209432Y121957D01*
X209359Y122030D01*
X209342Y122039D01*
X209327Y122052D01*
X209231Y122094D01*
X209139Y122140D01*
X209119Y122142D01*
X209101Y122150D01*
X208998Y122159D01*
X208895Y122173D01*
X208876Y122169D01*
X208856Y122171D01*
X208755Y122146D01*
X208653Y122127D01*
X208636Y122117D01*
X208617Y122113D01*
X208530Y122057D01*
X208439Y122006D01*
X208422Y121989D01*
X208409Y121981D01*
X208389Y121956D01*
X208321Y121888D01*
X205781Y118713D01*
X205766Y118687D01*
X205746Y118665D01*
X205706Y118580D01*
X205660Y118498D01*
X205654Y118469D01*
X205642Y118442D01*
X205632Y118349D01*
X205614Y118257D01*
X205618Y118227D01*
X205615Y118198D01*
X205635Y118106D01*
X205648Y118013D01*
X205661Y117986D01*
X205667Y117957D01*
X205715Y117877D01*
X205757Y117793D01*
X205778Y117772D01*
X205793Y117746D01*
X205865Y117685D01*
X205931Y117619D01*
X205957Y117606D01*
X205980Y117586D01*
X206067Y117551D01*
X206151Y117509D01*
X206181Y117505D01*
X206208Y117494D01*
X206375Y117476D01*
X211455Y117476D01*
X211484Y117481D01*
G37*
D10*
X81280Y120840D02*
X81280Y112840D01*
D11*
X106174Y123320D02*
X106809Y122685D01*
X106174Y123320D02*
X104903Y123320D01*
X104267Y122685D01*
X104267Y120143D01*
X104903Y119507D01*
X106174Y119507D01*
X106809Y120143D01*
X108009Y122049D02*
X109280Y123320D01*
X109280Y119507D01*
X108009Y119507D02*
X110551Y119507D01*
D10*
X81280Y144590D02*
X81280Y152590D01*
D11*
X56007Y167132D02*
X56007Y170945D01*
X57914Y170945D01*
X58549Y170310D01*
X58549Y169039D01*
X57914Y168403D01*
X56007Y168403D01*
X57278Y168403D02*
X58549Y167132D01*
X59749Y169674D02*
X61020Y170945D01*
X61020Y167132D01*
X59749Y167132D02*
X62291Y167132D01*
D10*
X196850Y152590D02*
X196850Y144590D01*
D11*
X214893Y130051D02*
X214893Y126238D01*
X214893Y130051D02*
X216799Y130051D01*
X217435Y129416D01*
X217435Y128145D01*
X216799Y127509D01*
X214893Y127509D01*
X216164Y127509D02*
X217435Y126238D01*
X218635Y126238D02*
X221177Y126238D01*
X218635Y126238D02*
X221177Y128780D01*
X221177Y129416D01*
X220542Y130051D01*
X219270Y130051D01*
X218635Y129416D01*
D10*
X90170Y89090D02*
X90170Y81090D01*
D11*
X62495Y81791D02*
X61859Y82426D01*
X60588Y82426D01*
X59953Y81791D01*
X59953Y79249D01*
X60588Y78613D01*
X61859Y78613D01*
X62495Y79249D01*
X63695Y82426D02*
X66237Y82426D01*
X66237Y81791D01*
X63695Y79249D01*
X63695Y78613D01*
D10*
X89535Y96330D02*
X89535Y104330D01*
D11*
X114429Y106810D02*
X115064Y106175D01*
X114429Y106810D02*
X113158Y106810D01*
X112522Y106175D01*
X112522Y103633D01*
X113158Y102997D01*
X114429Y102997D01*
X115064Y103633D01*
X116264Y106175D02*
X116900Y106810D01*
X118171Y106810D01*
X118806Y106175D01*
X118806Y105539D01*
X118171Y104904D01*
X118806Y104268D01*
X118806Y103633D01*
X118171Y102997D01*
X116900Y102997D01*
X116264Y103633D01*
X116264Y104268D01*
X116900Y104904D01*
X116264Y105539D01*
X116264Y106175D01*
X116900Y104904D02*
X118171Y104904D01*
D12*
X260260Y116160D02*
X260260Y158660D01*
X250760Y158660D01*
X226760Y158660D02*
X217260Y158660D01*
X217260Y117160D01*
X236260Y115660D02*
X241260Y115660D01*
D13*
X233760Y128160D02*
X247760Y142160D01*
X244260Y145660D02*
X230260Y131660D01*
X227760Y137160D02*
X227763Y137430D01*
X227773Y137700D01*
X227790Y137969D01*
X227813Y138238D01*
X227843Y138507D01*
X227879Y138774D01*
X227922Y139041D01*
X227971Y139306D01*
X228027Y139570D01*
X228090Y139833D01*
X228158Y140094D01*
X228234Y140353D01*
X228315Y140610D01*
X228403Y140866D01*
X228497Y141119D01*
X228597Y141370D01*
X228704Y141618D01*
X228816Y141863D01*
X228935Y142106D01*
X229059Y142345D01*
X229189Y142582D01*
X229325Y142815D01*
X229467Y143045D01*
X229614Y143271D01*
X229767Y143494D01*
X229925Y143713D01*
X230088Y143928D01*
X230257Y144138D01*
X230431Y144345D01*
X230610Y144547D01*
X230793Y144745D01*
X230982Y144938D01*
X231175Y145127D01*
X231373Y145310D01*
X231575Y145489D01*
X231782Y145663D01*
X231992Y145832D01*
X232207Y145995D01*
X232426Y146153D01*
X232649Y146306D01*
X232875Y146453D01*
X233105Y146595D01*
X233338Y146731D01*
X233575Y146861D01*
X233814Y146985D01*
X234057Y147104D01*
X234302Y147216D01*
X234550Y147323D01*
X234801Y147423D01*
X235054Y147517D01*
X235310Y147605D01*
X235567Y147686D01*
X235826Y147762D01*
X236087Y147830D01*
X236350Y147893D01*
X236614Y147949D01*
X236879Y147998D01*
X237146Y148041D01*
X237413Y148077D01*
X237682Y148107D01*
X237951Y148130D01*
X238220Y148147D01*
X238490Y148157D01*
X238760Y148160D01*
X239030Y148157D01*
X239300Y148147D01*
X239569Y148130D01*
X239838Y148107D01*
X240107Y148077D01*
X240374Y148041D01*
X240641Y147998D01*
X240906Y147949D01*
X241170Y147893D01*
X241433Y147830D01*
X241694Y147762D01*
X241953Y147686D01*
X242210Y147605D01*
X242466Y147517D01*
X242719Y147423D01*
X242970Y147323D01*
X243218Y147216D01*
X243463Y147104D01*
X243706Y146985D01*
X243945Y146861D01*
X244182Y146731D01*
X244415Y146595D01*
X244645Y146453D01*
X244871Y146306D01*
X245094Y146153D01*
X245313Y145995D01*
X245528Y145832D01*
X245738Y145663D01*
X245945Y145489D01*
X246147Y145310D01*
X246345Y145127D01*
X246538Y144938D01*
X246727Y144745D01*
X246910Y144547D01*
X247089Y144345D01*
X247263Y144138D01*
X247432Y143928D01*
X247595Y143713D01*
X247753Y143494D01*
X247906Y143271D01*
X248053Y143045D01*
X248195Y142815D01*
X248331Y142582D01*
X248461Y142345D01*
X248585Y142106D01*
X248704Y141863D01*
X248816Y141618D01*
X248923Y141370D01*
X249023Y141119D01*
X249117Y140866D01*
X249205Y140610D01*
X249286Y140353D01*
X249362Y140094D01*
X249430Y139833D01*
X249493Y139570D01*
X249549Y139306D01*
X249598Y139041D01*
X249641Y138774D01*
X249677Y138507D01*
X249707Y138238D01*
X249730Y137969D01*
X249747Y137700D01*
X249757Y137430D01*
X249760Y137160D01*
X249757Y136890D01*
X249747Y136620D01*
X249730Y136351D01*
X249707Y136082D01*
X249677Y135813D01*
X249641Y135546D01*
X249598Y135279D01*
X249549Y135014D01*
X249493Y134750D01*
X249430Y134487D01*
X249362Y134226D01*
X249286Y133967D01*
X249205Y133710D01*
X249117Y133454D01*
X249023Y133201D01*
X248923Y132950D01*
X248816Y132702D01*
X248704Y132457D01*
X248585Y132214D01*
X248461Y131975D01*
X248331Y131738D01*
X248195Y131505D01*
X248053Y131275D01*
X247906Y131049D01*
X247753Y130826D01*
X247595Y130607D01*
X247432Y130392D01*
X247263Y130182D01*
X247089Y129975D01*
X246910Y129773D01*
X246727Y129575D01*
X246538Y129382D01*
X246345Y129193D01*
X246147Y129010D01*
X245945Y128831D01*
X245738Y128657D01*
X245528Y128488D01*
X245313Y128325D01*
X245094Y128167D01*
X244871Y128014D01*
X244645Y127867D01*
X244415Y127725D01*
X244182Y127589D01*
X243945Y127459D01*
X243706Y127335D01*
X243463Y127216D01*
X243218Y127104D01*
X242970Y126997D01*
X242719Y126897D01*
X242466Y126803D01*
X242210Y126715D01*
X241953Y126634D01*
X241694Y126558D01*
X241433Y126490D01*
X241170Y126427D01*
X240906Y126371D01*
X240641Y126322D01*
X240374Y126279D01*
X240107Y126243D01*
X239838Y126213D01*
X239569Y126190D01*
X239300Y126173D01*
X239030Y126163D01*
X238760Y126160D01*
X238490Y126163D01*
X238220Y126173D01*
X237951Y126190D01*
X237682Y126213D01*
X237413Y126243D01*
X237146Y126279D01*
X236879Y126322D01*
X236614Y126371D01*
X236350Y126427D01*
X236087Y126490D01*
X235826Y126558D01*
X235567Y126634D01*
X235310Y126715D01*
X235054Y126803D01*
X234801Y126897D01*
X234550Y126997D01*
X234302Y127104D01*
X234057Y127216D01*
X233814Y127335D01*
X233575Y127459D01*
X233338Y127589D01*
X233105Y127725D01*
X232875Y127867D01*
X232649Y128014D01*
X232426Y128167D01*
X232207Y128325D01*
X231992Y128488D01*
X231782Y128657D01*
X231575Y128831D01*
X231373Y129010D01*
X231175Y129193D01*
X230982Y129382D01*
X230793Y129575D01*
X230610Y129773D01*
X230431Y129975D01*
X230257Y130182D01*
X230088Y130392D01*
X229925Y130607D01*
X229767Y130826D01*
X229614Y131049D01*
X229467Y131275D01*
X229325Y131505D01*
X229189Y131738D01*
X229059Y131975D01*
X228935Y132214D01*
X228816Y132457D01*
X228704Y132702D01*
X228597Y132950D01*
X228497Y133201D01*
X228403Y133454D01*
X228315Y133710D01*
X228234Y133967D01*
X228158Y134226D01*
X228090Y134487D01*
X228027Y134750D01*
X227971Y135014D01*
X227922Y135279D01*
X227879Y135546D01*
X227843Y135813D01*
X227813Y136082D01*
X227790Y136351D01*
X227773Y136620D01*
X227763Y136890D01*
X227760Y137160D01*
X208954Y112268D02*
X201158Y112268D01*
X208954Y112268D02*
X212852Y116166D01*
X208954Y120064D01*
X201158Y120064D01*
X201158Y123962D02*
X212852Y123962D01*
X201158Y123962D02*
X201158Y129809D01*
X203107Y131758D01*
X207005Y131758D01*
X208954Y129809D01*
X208954Y123962D01*
X208954Y127860D02*
X212852Y131758D01*
X205056Y135656D02*
X201158Y139554D01*
X212852Y139554D01*
X212852Y135656D02*
X212852Y143452D01*
X264658Y116166D02*
X268556Y112268D01*
X264658Y116166D02*
X276352Y116166D01*
X276352Y112268D02*
X276352Y120064D01*
X274403Y123962D02*
X266607Y123962D01*
X264658Y125911D01*
X264658Y129809D01*
X266607Y131758D01*
X274403Y131758D01*
X276352Y129809D01*
X276352Y125911D01*
X274403Y123962D01*
X266607Y131758D01*
X264658Y135656D02*
X276352Y135656D01*
X272454Y135656D02*
X264658Y143452D01*
X270505Y137605D02*
X276352Y143452D01*
D10*
X236220Y103060D02*
X236220Y95060D01*
D11*
X206003Y96396D02*
X206003Y92583D01*
X206003Y96396D02*
X207909Y96396D01*
X208545Y95761D01*
X208545Y94490D01*
X207909Y93854D01*
X206003Y93854D01*
X207274Y93854D02*
X208545Y92583D01*
X211652Y92583D02*
X211652Y96396D01*
X209745Y94490D01*
X212287Y94490D01*
D14*
X7400Y215900D02*
X7405Y216342D01*
X7422Y216783D01*
X7449Y217224D01*
X7487Y217664D01*
X7535Y218103D01*
X7595Y218541D01*
X7665Y218977D01*
X7746Y219412D01*
X7837Y219844D01*
X7939Y220274D01*
X8052Y220701D01*
X8175Y221125D01*
X8308Y221546D01*
X8452Y221964D01*
X8606Y222378D01*
X8770Y222788D01*
X8944Y223194D01*
X9128Y223596D01*
X9322Y223993D01*
X9525Y224385D01*
X9738Y224772D01*
X9961Y225154D01*
X10193Y225530D01*
X10434Y225900D01*
X10683Y226265D01*
X10942Y226623D01*
X11210Y226974D01*
X11486Y227319D01*
X11770Y227657D01*
X12063Y227988D01*
X12364Y228312D01*
X12672Y228628D01*
X12988Y228936D01*
X13312Y229237D01*
X13643Y229530D01*
X13981Y229814D01*
X14326Y230090D01*
X14677Y230358D01*
X15035Y230617D01*
X15400Y230866D01*
X15770Y231107D01*
X16146Y231339D01*
X16528Y231562D01*
X16915Y231775D01*
X17307Y231978D01*
X17704Y232172D01*
X18106Y232356D01*
X18512Y232530D01*
X18922Y232694D01*
X19336Y232848D01*
X19754Y232992D01*
X20175Y233125D01*
X20599Y233248D01*
X21026Y233361D01*
X21456Y233463D01*
X21888Y233554D01*
X22323Y233635D01*
X22759Y233705D01*
X23197Y233765D01*
X23636Y233813D01*
X24076Y233851D01*
X24517Y233878D01*
X24958Y233895D01*
X25400Y233900D01*
X25842Y233895D01*
X26283Y233878D01*
X26724Y233851D01*
X27164Y233813D01*
X27603Y233765D01*
X28041Y233705D01*
X28477Y233635D01*
X28912Y233554D01*
X29344Y233463D01*
X29774Y233361D01*
X30201Y233248D01*
X30625Y233125D01*
X31046Y232992D01*
X31464Y232848D01*
X31878Y232694D01*
X32288Y232530D01*
X32694Y232356D01*
X33096Y232172D01*
X33493Y231978D01*
X33885Y231775D01*
X34272Y231562D01*
X34654Y231339D01*
X35030Y231107D01*
X35400Y230866D01*
X35765Y230617D01*
X36123Y230358D01*
X36474Y230090D01*
X36819Y229814D01*
X37157Y229530D01*
X37488Y229237D01*
X37812Y228936D01*
X38128Y228628D01*
X38436Y228312D01*
X38737Y227988D01*
X39030Y227657D01*
X39314Y227319D01*
X39590Y226974D01*
X39858Y226623D01*
X40117Y226265D01*
X40366Y225900D01*
X40607Y225530D01*
X40839Y225154D01*
X41062Y224772D01*
X41275Y224385D01*
X41478Y223993D01*
X41672Y223596D01*
X41856Y223194D01*
X42030Y222788D01*
X42194Y222378D01*
X42348Y221964D01*
X42492Y221546D01*
X42625Y221125D01*
X42748Y220701D01*
X42861Y220274D01*
X42963Y219844D01*
X43054Y219412D01*
X43135Y218977D01*
X43205Y218541D01*
X43265Y218103D01*
X43313Y217664D01*
X43351Y217224D01*
X43378Y216783D01*
X43395Y216342D01*
X43400Y215900D01*
X43395Y215458D01*
X43378Y215017D01*
X43351Y214576D01*
X43313Y214136D01*
X43265Y213697D01*
X43205Y213259D01*
X43135Y212823D01*
X43054Y212388D01*
X42963Y211956D01*
X42861Y211526D01*
X42748Y211099D01*
X42625Y210675D01*
X42492Y210254D01*
X42348Y209836D01*
X42194Y209422D01*
X42030Y209012D01*
X41856Y208606D01*
X41672Y208204D01*
X41478Y207807D01*
X41275Y207415D01*
X41062Y207028D01*
X40839Y206646D01*
X40607Y206270D01*
X40366Y205900D01*
X40117Y205535D01*
X39858Y205177D01*
X39590Y204826D01*
X39314Y204481D01*
X39030Y204143D01*
X38737Y203812D01*
X38436Y203488D01*
X38128Y203172D01*
X37812Y202864D01*
X37488Y202563D01*
X37157Y202270D01*
X36819Y201986D01*
X36474Y201710D01*
X36123Y201442D01*
X35765Y201183D01*
X35400Y200934D01*
X35030Y200693D01*
X34654Y200461D01*
X34272Y200238D01*
X33885Y200025D01*
X33493Y199822D01*
X33096Y199628D01*
X32694Y199444D01*
X32288Y199270D01*
X31878Y199106D01*
X31464Y198952D01*
X31046Y198808D01*
X30625Y198675D01*
X30201Y198552D01*
X29774Y198439D01*
X29344Y198337D01*
X28912Y198246D01*
X28477Y198165D01*
X28041Y198095D01*
X27603Y198035D01*
X27164Y197987D01*
X26724Y197949D01*
X26283Y197922D01*
X25842Y197905D01*
X25400Y197900D01*
X24958Y197905D01*
X24517Y197922D01*
X24076Y197949D01*
X23636Y197987D01*
X23197Y198035D01*
X22759Y198095D01*
X22323Y198165D01*
X21888Y198246D01*
X21456Y198337D01*
X21026Y198439D01*
X20599Y198552D01*
X20175Y198675D01*
X19754Y198808D01*
X19336Y198952D01*
X18922Y199106D01*
X18512Y199270D01*
X18106Y199444D01*
X17704Y199628D01*
X17307Y199822D01*
X16915Y200025D01*
X16528Y200238D01*
X16146Y200461D01*
X15770Y200693D01*
X15400Y200934D01*
X15035Y201183D01*
X14677Y201442D01*
X14326Y201710D01*
X13981Y201986D01*
X13643Y202270D01*
X13312Y202563D01*
X12988Y202864D01*
X12672Y203172D01*
X12364Y203488D01*
X12063Y203812D01*
X11770Y204143D01*
X11486Y204481D01*
X11210Y204826D01*
X10942Y205177D01*
X10683Y205535D01*
X10434Y205900D01*
X10193Y206270D01*
X9961Y206646D01*
X9738Y207028D01*
X9525Y207415D01*
X9322Y207807D01*
X9128Y208204D01*
X8944Y208606D01*
X8770Y209012D01*
X8606Y209422D01*
X8452Y209836D01*
X8308Y210254D01*
X8175Y210675D01*
X8052Y211099D01*
X7939Y211526D01*
X7837Y211956D01*
X7746Y212388D01*
X7665Y212823D01*
X7595Y213259D01*
X7535Y213697D01*
X7487Y214136D01*
X7449Y214576D01*
X7422Y215017D01*
X7405Y215458D01*
X7400Y215900D01*
X223300Y215900D02*
X223305Y216342D01*
X223322Y216783D01*
X223349Y217224D01*
X223387Y217664D01*
X223435Y218103D01*
X223495Y218541D01*
X223565Y218977D01*
X223646Y219412D01*
X223737Y219844D01*
X223839Y220274D01*
X223952Y220701D01*
X224075Y221125D01*
X224208Y221546D01*
X224352Y221964D01*
X224506Y222378D01*
X224670Y222788D01*
X224844Y223194D01*
X225028Y223596D01*
X225222Y223993D01*
X225425Y224385D01*
X225638Y224772D01*
X225861Y225154D01*
X226093Y225530D01*
X226334Y225900D01*
X226583Y226265D01*
X226842Y226623D01*
X227110Y226974D01*
X227386Y227319D01*
X227670Y227657D01*
X227963Y227988D01*
X228264Y228312D01*
X228572Y228628D01*
X228888Y228936D01*
X229212Y229237D01*
X229543Y229530D01*
X229881Y229814D01*
X230226Y230090D01*
X230577Y230358D01*
X230935Y230617D01*
X231300Y230866D01*
X231670Y231107D01*
X232046Y231339D01*
X232428Y231562D01*
X232815Y231775D01*
X233207Y231978D01*
X233604Y232172D01*
X234006Y232356D01*
X234412Y232530D01*
X234822Y232694D01*
X235236Y232848D01*
X235654Y232992D01*
X236075Y233125D01*
X236499Y233248D01*
X236926Y233361D01*
X237356Y233463D01*
X237788Y233554D01*
X238223Y233635D01*
X238659Y233705D01*
X239097Y233765D01*
X239536Y233813D01*
X239976Y233851D01*
X240417Y233878D01*
X240858Y233895D01*
X241300Y233900D01*
X241742Y233895D01*
X242183Y233878D01*
X242624Y233851D01*
X243064Y233813D01*
X243503Y233765D01*
X243941Y233705D01*
X244377Y233635D01*
X244812Y233554D01*
X245244Y233463D01*
X245674Y233361D01*
X246101Y233248D01*
X246525Y233125D01*
X246946Y232992D01*
X247364Y232848D01*
X247778Y232694D01*
X248188Y232530D01*
X248594Y232356D01*
X248996Y232172D01*
X249393Y231978D01*
X249785Y231775D01*
X250172Y231562D01*
X250554Y231339D01*
X250930Y231107D01*
X251300Y230866D01*
X251665Y230617D01*
X252023Y230358D01*
X252374Y230090D01*
X252719Y229814D01*
X253057Y229530D01*
X253388Y229237D01*
X253712Y228936D01*
X254028Y228628D01*
X254336Y228312D01*
X254637Y227988D01*
X254930Y227657D01*
X255214Y227319D01*
X255490Y226974D01*
X255758Y226623D01*
X256017Y226265D01*
X256266Y225900D01*
X256507Y225530D01*
X256739Y225154D01*
X256962Y224772D01*
X257175Y224385D01*
X257378Y223993D01*
X257572Y223596D01*
X257756Y223194D01*
X257930Y222788D01*
X258094Y222378D01*
X258248Y221964D01*
X258392Y221546D01*
X258525Y221125D01*
X258648Y220701D01*
X258761Y220274D01*
X258863Y219844D01*
X258954Y219412D01*
X259035Y218977D01*
X259105Y218541D01*
X259165Y218103D01*
X259213Y217664D01*
X259251Y217224D01*
X259278Y216783D01*
X259295Y216342D01*
X259300Y215900D01*
X259295Y215458D01*
X259278Y215017D01*
X259251Y214576D01*
X259213Y214136D01*
X259165Y213697D01*
X259105Y213259D01*
X259035Y212823D01*
X258954Y212388D01*
X258863Y211956D01*
X258761Y211526D01*
X258648Y211099D01*
X258525Y210675D01*
X258392Y210254D01*
X258248Y209836D01*
X258094Y209422D01*
X257930Y209012D01*
X257756Y208606D01*
X257572Y208204D01*
X257378Y207807D01*
X257175Y207415D01*
X256962Y207028D01*
X256739Y206646D01*
X256507Y206270D01*
X256266Y205900D01*
X256017Y205535D01*
X255758Y205177D01*
X255490Y204826D01*
X255214Y204481D01*
X254930Y204143D01*
X254637Y203812D01*
X254336Y203488D01*
X254028Y203172D01*
X253712Y202864D01*
X253388Y202563D01*
X253057Y202270D01*
X252719Y201986D01*
X252374Y201710D01*
X252023Y201442D01*
X251665Y201183D01*
X251300Y200934D01*
X250930Y200693D01*
X250554Y200461D01*
X250172Y200238D01*
X249785Y200025D01*
X249393Y199822D01*
X248996Y199628D01*
X248594Y199444D01*
X248188Y199270D01*
X247778Y199106D01*
X247364Y198952D01*
X246946Y198808D01*
X246525Y198675D01*
X246101Y198552D01*
X245674Y198439D01*
X245244Y198337D01*
X244812Y198246D01*
X244377Y198165D01*
X243941Y198095D01*
X243503Y198035D01*
X243064Y197987D01*
X242624Y197949D01*
X242183Y197922D01*
X241742Y197905D01*
X241300Y197900D01*
X240858Y197905D01*
X240417Y197922D01*
X239976Y197949D01*
X239536Y197987D01*
X239097Y198035D01*
X238659Y198095D01*
X238223Y198165D01*
X237788Y198246D01*
X237356Y198337D01*
X236926Y198439D01*
X236499Y198552D01*
X236075Y198675D01*
X235654Y198808D01*
X235236Y198952D01*
X234822Y199106D01*
X234412Y199270D01*
X234006Y199444D01*
X233604Y199628D01*
X233207Y199822D01*
X232815Y200025D01*
X232428Y200238D01*
X232046Y200461D01*
X231670Y200693D01*
X231300Y200934D01*
X230935Y201183D01*
X230577Y201442D01*
X230226Y201710D01*
X229881Y201986D01*
X229543Y202270D01*
X229212Y202563D01*
X228888Y202864D01*
X228572Y203172D01*
X228264Y203488D01*
X227963Y203812D01*
X227670Y204143D01*
X227386Y204481D01*
X227110Y204826D01*
X226842Y205177D01*
X226583Y205535D01*
X226334Y205900D01*
X226093Y206270D01*
X225861Y206646D01*
X225638Y207028D01*
X225425Y207415D01*
X225222Y207807D01*
X225028Y208204D01*
X224844Y208606D01*
X224670Y209012D01*
X224506Y209422D01*
X224352Y209836D01*
X224208Y210254D01*
X224075Y210675D01*
X223952Y211099D01*
X223839Y211526D01*
X223737Y211956D01*
X223646Y212388D01*
X223565Y212823D01*
X223495Y213259D01*
X223435Y213697D01*
X223387Y214136D01*
X223349Y214576D01*
X223322Y215017D01*
X223305Y215458D01*
X223300Y215900D01*
D10*
X167640Y63500D02*
X157480Y63500D01*
D15*
X148351Y59143D02*
X147249Y58042D01*
X147249Y55839D01*
X148351Y54737D01*
X152757Y54737D01*
X153859Y55839D01*
X153859Y58042D01*
X152757Y59143D01*
X153859Y62221D02*
X153859Y66628D01*
X149453Y66628D02*
X153859Y62221D01*
X149453Y66628D02*
X148351Y66628D01*
X147249Y65526D01*
X147249Y63323D01*
X148351Y62221D01*
X7452Y44450D02*
X6350Y45552D01*
X7452Y44450D02*
X8553Y44450D01*
X9655Y45552D01*
X9655Y51060D01*
X10756Y51060D02*
X8553Y51060D01*
X13834Y51060D02*
X13834Y44450D01*
X13834Y51060D02*
X17139Y51060D01*
X18241Y49958D01*
X18241Y47755D01*
X17139Y46653D01*
X13834Y46653D01*
X24623Y44450D02*
X24623Y51060D01*
X21318Y47755D01*
X25725Y47755D01*
X54650Y172200D02*
X212050Y172200D01*
X54650Y172200D02*
X54650Y235200D01*
X164750Y235200D01*
X177750Y235200D01*
X190750Y235200D02*
X202750Y235200D01*
X212050Y235200D01*
X212050Y172200D01*
X202750Y223200D02*
X202750Y235200D01*
X202750Y223200D02*
X190750Y223200D01*
X190750Y235200D01*
X177750Y235200D01*
X177750Y223200D01*
X164750Y223200D01*
X164750Y235200D01*
X151950Y235200D02*
X151950Y223200D01*
X139950Y223200D01*
X139950Y235200D01*
X126550Y235200D02*
X126550Y223200D01*
X114550Y223200D01*
X114550Y235200D01*
X196750Y232200D02*
X196750Y226200D01*
X199750Y229200D02*
X196750Y232200D01*
X199750Y229200D02*
X193750Y229200D01*
X196750Y232200D01*
X171350Y232200D02*
X171350Y226200D01*
X174350Y229200D02*
X171350Y232200D01*
X174350Y229200D02*
X168350Y229200D01*
X171350Y232200D01*
X145950Y232200D02*
X145950Y226200D01*
X148950Y229200D02*
X145950Y232200D01*
X148950Y229200D02*
X142950Y229200D01*
X145950Y232200D01*
X120550Y232200D02*
X120550Y226200D01*
X123550Y229200D02*
X120550Y232200D01*
X123550Y229200D02*
X117550Y229200D01*
X120550Y232200D01*
X101150Y235200D02*
X101150Y223200D01*
X89150Y223200D01*
X89150Y235200D01*
X95150Y232200D02*
X95150Y226200D01*
X98150Y229200D02*
X95150Y232200D01*
X98150Y229200D02*
X92150Y229200D01*
X95150Y232200D01*
X75750Y235200D02*
X75750Y223200D01*
X63750Y223200D01*
X63750Y235200D01*
X69750Y232200D02*
X69750Y226200D01*
X72750Y229200D02*
X69750Y232200D01*
X72750Y229200D02*
X66750Y229200D01*
X69750Y232200D01*
X188622Y161648D02*
X189723Y160546D01*
X190825Y160546D01*
X191926Y161648D01*
X191926Y167156D01*
X190825Y167156D02*
X193028Y167156D01*
X196106Y167156D02*
X196106Y160546D01*
X196106Y167156D02*
X199411Y167156D01*
X200512Y166054D01*
X200512Y163851D01*
X199411Y162749D01*
X196106Y162749D01*
X203590Y164952D02*
X205793Y167156D01*
X205793Y160546D01*
X203590Y160546D02*
X207996Y160546D01*
D10*
X149415Y62230D02*
X141415Y62230D01*
D15*
X139313Y84077D02*
X140415Y85178D01*
X139313Y84077D02*
X139313Y81874D01*
X140415Y80772D01*
X144821Y80772D01*
X145923Y81874D01*
X145923Y84077D01*
X144821Y85178D01*
X140415Y88256D02*
X139313Y89358D01*
X139313Y91561D01*
X140415Y92663D01*
X141517Y92663D01*
X142618Y91561D01*
X142618Y90459D01*
X142618Y91561D02*
X143720Y92663D01*
X144821Y92663D01*
X145923Y91561D01*
X145923Y89358D01*
X144821Y88256D01*
D10*
X73818Y162560D02*
X65881Y162560D01*
X69850Y166528D02*
X69850Y158592D01*
D14*
X62033Y162560D02*
X62035Y162752D01*
X62042Y162944D01*
X62054Y163135D01*
X62071Y163326D01*
X62092Y163517D01*
X62118Y163707D01*
X62148Y163896D01*
X62183Y164085D01*
X62223Y164273D01*
X62267Y164459D01*
X62316Y164645D01*
X62370Y164829D01*
X62428Y165012D01*
X62490Y165193D01*
X62557Y165373D01*
X62628Y165551D01*
X62704Y165728D01*
X62784Y165902D01*
X62868Y166075D01*
X62956Y166245D01*
X63049Y166413D01*
X63145Y166579D01*
X63246Y166742D01*
X63350Y166903D01*
X63459Y167061D01*
X63571Y167217D01*
X63687Y167369D01*
X63807Y167519D01*
X63931Y167666D01*
X64058Y167810D01*
X64189Y167950D01*
X64323Y168087D01*
X64460Y168221D01*
X64600Y168352D01*
X64744Y168479D01*
X64891Y168603D01*
X65041Y168723D01*
X65193Y168839D01*
X65349Y168951D01*
X65507Y169060D01*
X65668Y169164D01*
X65831Y169265D01*
X65997Y169361D01*
X66165Y169454D01*
X66335Y169542D01*
X66508Y169626D01*
X66682Y169706D01*
X66859Y169782D01*
X67037Y169853D01*
X67217Y169920D01*
X67398Y169982D01*
X67581Y170040D01*
X67765Y170094D01*
X67951Y170143D01*
X68137Y170187D01*
X68325Y170227D01*
X68514Y170262D01*
X68703Y170292D01*
X68893Y170318D01*
X69084Y170339D01*
X69275Y170356D01*
X69466Y170368D01*
X69658Y170375D01*
X69850Y170377D01*
X70042Y170375D01*
X70234Y170368D01*
X70425Y170356D01*
X70616Y170339D01*
X70807Y170318D01*
X70997Y170292D01*
X71186Y170262D01*
X71375Y170227D01*
X71563Y170187D01*
X71749Y170143D01*
X71935Y170094D01*
X72119Y170040D01*
X72302Y169982D01*
X72483Y169920D01*
X72663Y169853D01*
X72841Y169782D01*
X73018Y169706D01*
X73192Y169626D01*
X73365Y169542D01*
X73535Y169454D01*
X73703Y169361D01*
X73869Y169265D01*
X74032Y169164D01*
X74193Y169060D01*
X74351Y168951D01*
X74507Y168839D01*
X74659Y168723D01*
X74809Y168603D01*
X74956Y168479D01*
X75100Y168352D01*
X75240Y168221D01*
X75377Y168087D01*
X75511Y167950D01*
X75642Y167810D01*
X75769Y167666D01*
X75893Y167519D01*
X76013Y167369D01*
X76129Y167217D01*
X76241Y167061D01*
X76350Y166903D01*
X76454Y166742D01*
X76555Y166579D01*
X76651Y166413D01*
X76744Y166245D01*
X76832Y166075D01*
X76916Y165902D01*
X76996Y165728D01*
X77072Y165551D01*
X77143Y165373D01*
X77210Y165193D01*
X77272Y165012D01*
X77330Y164829D01*
X77384Y164645D01*
X77433Y164459D01*
X77477Y164273D01*
X77517Y164085D01*
X77552Y163896D01*
X77582Y163707D01*
X77608Y163517D01*
X77629Y163326D01*
X77646Y163135D01*
X77658Y162944D01*
X77665Y162752D01*
X77667Y162560D01*
X77665Y162368D01*
X77658Y162176D01*
X77646Y161985D01*
X77629Y161794D01*
X77608Y161603D01*
X77582Y161413D01*
X77552Y161224D01*
X77517Y161035D01*
X77477Y160847D01*
X77433Y160661D01*
X77384Y160475D01*
X77330Y160291D01*
X77272Y160108D01*
X77210Y159927D01*
X77143Y159747D01*
X77072Y159569D01*
X76996Y159392D01*
X76916Y159218D01*
X76832Y159045D01*
X76744Y158875D01*
X76651Y158707D01*
X76555Y158541D01*
X76454Y158378D01*
X76350Y158217D01*
X76241Y158059D01*
X76129Y157903D01*
X76013Y157751D01*
X75893Y157601D01*
X75769Y157454D01*
X75642Y157310D01*
X75511Y157170D01*
X75377Y157033D01*
X75240Y156899D01*
X75100Y156768D01*
X74956Y156641D01*
X74809Y156517D01*
X74659Y156397D01*
X74507Y156281D01*
X74351Y156169D01*
X74193Y156060D01*
X74032Y155956D01*
X73869Y155855D01*
X73703Y155759D01*
X73535Y155666D01*
X73365Y155578D01*
X73192Y155494D01*
X73018Y155414D01*
X72841Y155338D01*
X72663Y155267D01*
X72483Y155200D01*
X72302Y155138D01*
X72119Y155080D01*
X71935Y155026D01*
X71749Y154977D01*
X71563Y154933D01*
X71375Y154893D01*
X71186Y154858D01*
X70997Y154828D01*
X70807Y154802D01*
X70616Y154781D01*
X70425Y154764D01*
X70234Y154752D01*
X70042Y154745D01*
X69850Y154743D01*
X69658Y154745D01*
X69466Y154752D01*
X69275Y154764D01*
X69084Y154781D01*
X68893Y154802D01*
X68703Y154828D01*
X68514Y154858D01*
X68325Y154893D01*
X68137Y154933D01*
X67951Y154977D01*
X67765Y155026D01*
X67581Y155080D01*
X67398Y155138D01*
X67217Y155200D01*
X67037Y155267D01*
X66859Y155338D01*
X66682Y155414D01*
X66508Y155494D01*
X66335Y155578D01*
X66165Y155666D01*
X65997Y155759D01*
X65831Y155855D01*
X65668Y155956D01*
X65507Y156060D01*
X65349Y156169D01*
X65193Y156281D01*
X65041Y156397D01*
X64891Y156517D01*
X64744Y156641D01*
X64600Y156768D01*
X64460Y156899D01*
X64323Y157033D01*
X64189Y157170D01*
X64058Y157310D01*
X63931Y157454D01*
X63807Y157601D01*
X63687Y157751D01*
X63571Y157903D01*
X63459Y158059D01*
X63350Y158217D01*
X63246Y158378D01*
X63145Y158541D01*
X63049Y158707D01*
X62956Y158875D01*
X62868Y159045D01*
X62784Y159218D01*
X62704Y159392D01*
X62628Y159569D01*
X62557Y159747D01*
X62490Y159927D01*
X62428Y160108D01*
X62370Y160291D01*
X62316Y160475D01*
X62267Y160661D01*
X62223Y160847D01*
X62183Y161035D01*
X62148Y161224D01*
X62118Y161413D01*
X62092Y161603D01*
X62071Y161794D01*
X62054Y161985D01*
X62042Y162176D01*
X62035Y162368D01*
X62033Y162560D01*
D10*
X90011Y162560D02*
X97948Y162560D01*
D14*
X86163Y162560D02*
X86165Y162752D01*
X86172Y162944D01*
X86184Y163135D01*
X86201Y163326D01*
X86222Y163517D01*
X86248Y163707D01*
X86278Y163896D01*
X86313Y164085D01*
X86353Y164273D01*
X86397Y164459D01*
X86446Y164645D01*
X86500Y164829D01*
X86558Y165012D01*
X86620Y165193D01*
X86687Y165373D01*
X86758Y165551D01*
X86834Y165728D01*
X86914Y165902D01*
X86998Y166075D01*
X87086Y166245D01*
X87179Y166413D01*
X87275Y166579D01*
X87376Y166742D01*
X87480Y166903D01*
X87589Y167061D01*
X87701Y167217D01*
X87817Y167369D01*
X87937Y167519D01*
X88061Y167666D01*
X88188Y167810D01*
X88319Y167950D01*
X88453Y168087D01*
X88590Y168221D01*
X88730Y168352D01*
X88874Y168479D01*
X89021Y168603D01*
X89171Y168723D01*
X89323Y168839D01*
X89479Y168951D01*
X89637Y169060D01*
X89798Y169164D01*
X89961Y169265D01*
X90127Y169361D01*
X90295Y169454D01*
X90465Y169542D01*
X90638Y169626D01*
X90812Y169706D01*
X90989Y169782D01*
X91167Y169853D01*
X91347Y169920D01*
X91528Y169982D01*
X91711Y170040D01*
X91895Y170094D01*
X92081Y170143D01*
X92267Y170187D01*
X92455Y170227D01*
X92644Y170262D01*
X92833Y170292D01*
X93023Y170318D01*
X93214Y170339D01*
X93405Y170356D01*
X93596Y170368D01*
X93788Y170375D01*
X93980Y170377D01*
X94172Y170375D01*
X94364Y170368D01*
X94555Y170356D01*
X94746Y170339D01*
X94937Y170318D01*
X95127Y170292D01*
X95316Y170262D01*
X95505Y170227D01*
X95693Y170187D01*
X95879Y170143D01*
X96065Y170094D01*
X96249Y170040D01*
X96432Y169982D01*
X96613Y169920D01*
X96793Y169853D01*
X96971Y169782D01*
X97148Y169706D01*
X97322Y169626D01*
X97495Y169542D01*
X97665Y169454D01*
X97833Y169361D01*
X97999Y169265D01*
X98162Y169164D01*
X98323Y169060D01*
X98481Y168951D01*
X98637Y168839D01*
X98789Y168723D01*
X98939Y168603D01*
X99086Y168479D01*
X99230Y168352D01*
X99370Y168221D01*
X99507Y168087D01*
X99641Y167950D01*
X99772Y167810D01*
X99899Y167666D01*
X100023Y167519D01*
X100143Y167369D01*
X100259Y167217D01*
X100371Y167061D01*
X100480Y166903D01*
X100584Y166742D01*
X100685Y166579D01*
X100781Y166413D01*
X100874Y166245D01*
X100962Y166075D01*
X101046Y165902D01*
X101126Y165728D01*
X101202Y165551D01*
X101273Y165373D01*
X101340Y165193D01*
X101402Y165012D01*
X101460Y164829D01*
X101514Y164645D01*
X101563Y164459D01*
X101607Y164273D01*
X101647Y164085D01*
X101682Y163896D01*
X101712Y163707D01*
X101738Y163517D01*
X101759Y163326D01*
X101776Y163135D01*
X101788Y162944D01*
X101795Y162752D01*
X101797Y162560D01*
X101795Y162368D01*
X101788Y162176D01*
X101776Y161985D01*
X101759Y161794D01*
X101738Y161603D01*
X101712Y161413D01*
X101682Y161224D01*
X101647Y161035D01*
X101607Y160847D01*
X101563Y160661D01*
X101514Y160475D01*
X101460Y160291D01*
X101402Y160108D01*
X101340Y159927D01*
X101273Y159747D01*
X101202Y159569D01*
X101126Y159392D01*
X101046Y159218D01*
X100962Y159045D01*
X100874Y158875D01*
X100781Y158707D01*
X100685Y158541D01*
X100584Y158378D01*
X100480Y158217D01*
X100371Y158059D01*
X100259Y157903D01*
X100143Y157751D01*
X100023Y157601D01*
X99899Y157454D01*
X99772Y157310D01*
X99641Y157170D01*
X99507Y157033D01*
X99370Y156899D01*
X99230Y156768D01*
X99086Y156641D01*
X98939Y156517D01*
X98789Y156397D01*
X98637Y156281D01*
X98481Y156169D01*
X98323Y156060D01*
X98162Y155956D01*
X97999Y155855D01*
X97833Y155759D01*
X97665Y155666D01*
X97495Y155578D01*
X97322Y155494D01*
X97148Y155414D01*
X96971Y155338D01*
X96793Y155267D01*
X96613Y155200D01*
X96432Y155138D01*
X96249Y155080D01*
X96065Y155026D01*
X95879Y154977D01*
X95693Y154933D01*
X95505Y154893D01*
X95316Y154858D01*
X95127Y154828D01*
X94937Y154802D01*
X94746Y154781D01*
X94555Y154764D01*
X94364Y154752D01*
X94172Y154745D01*
X93980Y154743D01*
X93788Y154745D01*
X93596Y154752D01*
X93405Y154764D01*
X93214Y154781D01*
X93023Y154802D01*
X92833Y154828D01*
X92644Y154858D01*
X92455Y154893D01*
X92267Y154933D01*
X92081Y154977D01*
X91895Y155026D01*
X91711Y155080D01*
X91528Y155138D01*
X91347Y155200D01*
X91167Y155267D01*
X90989Y155338D01*
X90812Y155414D01*
X90638Y155494D01*
X90465Y155578D01*
X90295Y155666D01*
X90127Y155759D01*
X89961Y155855D01*
X89798Y155956D01*
X89637Y156060D01*
X89479Y156169D01*
X89323Y156281D01*
X89171Y156397D01*
X89021Y156517D01*
X88874Y156641D01*
X88730Y156768D01*
X88590Y156899D01*
X88453Y157033D01*
X88319Y157170D01*
X88188Y157310D01*
X88061Y157454D01*
X87937Y157601D01*
X87817Y157751D01*
X87701Y157903D01*
X87589Y158059D01*
X87480Y158217D01*
X87376Y158378D01*
X87275Y158541D01*
X87179Y158707D01*
X87086Y158875D01*
X86998Y159045D01*
X86914Y159218D01*
X86834Y159392D01*
X86758Y159569D01*
X86687Y159747D01*
X86620Y159927D01*
X86558Y160108D01*
X86500Y160291D01*
X86446Y160475D01*
X86397Y160661D01*
X86353Y160847D01*
X86313Y161035D01*
X86278Y161224D01*
X86248Y161413D01*
X86222Y161603D01*
X86201Y161794D01*
X86184Y161985D01*
X86172Y162176D01*
X86165Y162368D01*
X86163Y162560D01*
D10*
X81280Y137350D02*
X81280Y129350D01*
D15*
X99822Y132842D02*
X99822Y139452D01*
X103127Y139452D01*
X104228Y138350D01*
X104228Y136147D01*
X103127Y135045D01*
X99822Y135045D01*
X102025Y135045D02*
X104228Y132842D01*
X107306Y138350D02*
X108408Y139452D01*
X110611Y139452D01*
X111713Y138350D01*
X111713Y137248D01*
X110611Y136147D01*
X109509Y136147D01*
X110611Y136147D02*
X111713Y135045D01*
X111713Y133944D01*
X110611Y132842D01*
X108408Y132842D01*
X107306Y133944D01*
D14*
X7400Y69850D02*
X7405Y70292D01*
X7422Y70733D01*
X7449Y71174D01*
X7487Y71614D01*
X7535Y72053D01*
X7595Y72491D01*
X7665Y72927D01*
X7746Y73362D01*
X7837Y73794D01*
X7939Y74224D01*
X8052Y74651D01*
X8175Y75075D01*
X8308Y75496D01*
X8452Y75914D01*
X8606Y76328D01*
X8770Y76738D01*
X8944Y77144D01*
X9128Y77546D01*
X9322Y77943D01*
X9525Y78335D01*
X9738Y78722D01*
X9961Y79104D01*
X10193Y79480D01*
X10434Y79850D01*
X10683Y80215D01*
X10942Y80573D01*
X11210Y80924D01*
X11486Y81269D01*
X11770Y81607D01*
X12063Y81938D01*
X12364Y82262D01*
X12672Y82578D01*
X12988Y82886D01*
X13312Y83187D01*
X13643Y83480D01*
X13981Y83764D01*
X14326Y84040D01*
X14677Y84308D01*
X15035Y84567D01*
X15400Y84816D01*
X15770Y85057D01*
X16146Y85289D01*
X16528Y85512D01*
X16915Y85725D01*
X17307Y85928D01*
X17704Y86122D01*
X18106Y86306D01*
X18512Y86480D01*
X18922Y86644D01*
X19336Y86798D01*
X19754Y86942D01*
X20175Y87075D01*
X20599Y87198D01*
X21026Y87311D01*
X21456Y87413D01*
X21888Y87504D01*
X22323Y87585D01*
X22759Y87655D01*
X23197Y87715D01*
X23636Y87763D01*
X24076Y87801D01*
X24517Y87828D01*
X24958Y87845D01*
X25400Y87850D01*
X25842Y87845D01*
X26283Y87828D01*
X26724Y87801D01*
X27164Y87763D01*
X27603Y87715D01*
X28041Y87655D01*
X28477Y87585D01*
X28912Y87504D01*
X29344Y87413D01*
X29774Y87311D01*
X30201Y87198D01*
X30625Y87075D01*
X31046Y86942D01*
X31464Y86798D01*
X31878Y86644D01*
X32288Y86480D01*
X32694Y86306D01*
X33096Y86122D01*
X33493Y85928D01*
X33885Y85725D01*
X34272Y85512D01*
X34654Y85289D01*
X35030Y85057D01*
X35400Y84816D01*
X35765Y84567D01*
X36123Y84308D01*
X36474Y84040D01*
X36819Y83764D01*
X37157Y83480D01*
X37488Y83187D01*
X37812Y82886D01*
X38128Y82578D01*
X38436Y82262D01*
X38737Y81938D01*
X39030Y81607D01*
X39314Y81269D01*
X39590Y80924D01*
X39858Y80573D01*
X40117Y80215D01*
X40366Y79850D01*
X40607Y79480D01*
X40839Y79104D01*
X41062Y78722D01*
X41275Y78335D01*
X41478Y77943D01*
X41672Y77546D01*
X41856Y77144D01*
X42030Y76738D01*
X42194Y76328D01*
X42348Y75914D01*
X42492Y75496D01*
X42625Y75075D01*
X42748Y74651D01*
X42861Y74224D01*
X42963Y73794D01*
X43054Y73362D01*
X43135Y72927D01*
X43205Y72491D01*
X43265Y72053D01*
X43313Y71614D01*
X43351Y71174D01*
X43378Y70733D01*
X43395Y70292D01*
X43400Y69850D01*
X43395Y69408D01*
X43378Y68967D01*
X43351Y68526D01*
X43313Y68086D01*
X43265Y67647D01*
X43205Y67209D01*
X43135Y66773D01*
X43054Y66338D01*
X42963Y65906D01*
X42861Y65476D01*
X42748Y65049D01*
X42625Y64625D01*
X42492Y64204D01*
X42348Y63786D01*
X42194Y63372D01*
X42030Y62962D01*
X41856Y62556D01*
X41672Y62154D01*
X41478Y61757D01*
X41275Y61365D01*
X41062Y60978D01*
X40839Y60596D01*
X40607Y60220D01*
X40366Y59850D01*
X40117Y59485D01*
X39858Y59127D01*
X39590Y58776D01*
X39314Y58431D01*
X39030Y58093D01*
X38737Y57762D01*
X38436Y57438D01*
X38128Y57122D01*
X37812Y56814D01*
X37488Y56513D01*
X37157Y56220D01*
X36819Y55936D01*
X36474Y55660D01*
X36123Y55392D01*
X35765Y55133D01*
X35400Y54884D01*
X35030Y54643D01*
X34654Y54411D01*
X34272Y54188D01*
X33885Y53975D01*
X33493Y53772D01*
X33096Y53578D01*
X32694Y53394D01*
X32288Y53220D01*
X31878Y53056D01*
X31464Y52902D01*
X31046Y52758D01*
X30625Y52625D01*
X30201Y52502D01*
X29774Y52389D01*
X29344Y52287D01*
X28912Y52196D01*
X28477Y52115D01*
X28041Y52045D01*
X27603Y51985D01*
X27164Y51937D01*
X26724Y51899D01*
X26283Y51872D01*
X25842Y51855D01*
X25400Y51850D01*
X24958Y51855D01*
X24517Y51872D01*
X24076Y51899D01*
X23636Y51937D01*
X23197Y51985D01*
X22759Y52045D01*
X22323Y52115D01*
X21888Y52196D01*
X21456Y52287D01*
X21026Y52389D01*
X20599Y52502D01*
X20175Y52625D01*
X19754Y52758D01*
X19336Y52902D01*
X18922Y53056D01*
X18512Y53220D01*
X18106Y53394D01*
X17704Y53578D01*
X17307Y53772D01*
X16915Y53975D01*
X16528Y54188D01*
X16146Y54411D01*
X15770Y54643D01*
X15400Y54884D01*
X15035Y55133D01*
X14677Y55392D01*
X14326Y55660D01*
X13981Y55936D01*
X13643Y56220D01*
X13312Y56513D01*
X12988Y56814D01*
X12672Y57122D01*
X12364Y57438D01*
X12063Y57762D01*
X11770Y58093D01*
X11486Y58431D01*
X11210Y58776D01*
X10942Y59127D01*
X10683Y59485D01*
X10434Y59850D01*
X10193Y60220D01*
X9961Y60596D01*
X9738Y60978D01*
X9525Y61365D01*
X9322Y61757D01*
X9128Y62154D01*
X8944Y62556D01*
X8770Y62962D01*
X8606Y63372D01*
X8452Y63786D01*
X8308Y64204D01*
X8175Y64625D01*
X8052Y65049D01*
X7939Y65476D01*
X7837Y65906D01*
X7746Y66338D01*
X7665Y66773D01*
X7595Y67209D01*
X7535Y67647D01*
X7487Y68086D01*
X7449Y68526D01*
X7422Y68967D01*
X7405Y69408D01*
X7400Y69850D01*
X223300Y69850D02*
X223305Y70292D01*
X223322Y70733D01*
X223349Y71174D01*
X223387Y71614D01*
X223435Y72053D01*
X223495Y72491D01*
X223565Y72927D01*
X223646Y73362D01*
X223737Y73794D01*
X223839Y74224D01*
X223952Y74651D01*
X224075Y75075D01*
X224208Y75496D01*
X224352Y75914D01*
X224506Y76328D01*
X224670Y76738D01*
X224844Y77144D01*
X225028Y77546D01*
X225222Y77943D01*
X225425Y78335D01*
X225638Y78722D01*
X225861Y79104D01*
X226093Y79480D01*
X226334Y79850D01*
X226583Y80215D01*
X226842Y80573D01*
X227110Y80924D01*
X227386Y81269D01*
X227670Y81607D01*
X227963Y81938D01*
X228264Y82262D01*
X228572Y82578D01*
X228888Y82886D01*
X229212Y83187D01*
X229543Y83480D01*
X229881Y83764D01*
X230226Y84040D01*
X230577Y84308D01*
X230935Y84567D01*
X231300Y84816D01*
X231670Y85057D01*
X232046Y85289D01*
X232428Y85512D01*
X232815Y85725D01*
X233207Y85928D01*
X233604Y86122D01*
X234006Y86306D01*
X234412Y86480D01*
X234822Y86644D01*
X235236Y86798D01*
X235654Y86942D01*
X236075Y87075D01*
X236499Y87198D01*
X236926Y87311D01*
X237356Y87413D01*
X237788Y87504D01*
X238223Y87585D01*
X238659Y87655D01*
X239097Y87715D01*
X239536Y87763D01*
X239976Y87801D01*
X240417Y87828D01*
X240858Y87845D01*
X241300Y87850D01*
X241742Y87845D01*
X242183Y87828D01*
X242624Y87801D01*
X243064Y87763D01*
X243503Y87715D01*
X243941Y87655D01*
X244377Y87585D01*
X244812Y87504D01*
X245244Y87413D01*
X245674Y87311D01*
X246101Y87198D01*
X246525Y87075D01*
X246946Y86942D01*
X247364Y86798D01*
X247778Y86644D01*
X248188Y86480D01*
X248594Y86306D01*
X248996Y86122D01*
X249393Y85928D01*
X249785Y85725D01*
X250172Y85512D01*
X250554Y85289D01*
X250930Y85057D01*
X251300Y84816D01*
X251665Y84567D01*
X252023Y84308D01*
X252374Y84040D01*
X252719Y83764D01*
X253057Y83480D01*
X253388Y83187D01*
X253712Y82886D01*
X254028Y82578D01*
X254336Y82262D01*
X254637Y81938D01*
X254930Y81607D01*
X255214Y81269D01*
X255490Y80924D01*
X255758Y80573D01*
X256017Y80215D01*
X256266Y79850D01*
X256507Y79480D01*
X256739Y79104D01*
X256962Y78722D01*
X257175Y78335D01*
X257378Y77943D01*
X257572Y77546D01*
X257756Y77144D01*
X257930Y76738D01*
X258094Y76328D01*
X258248Y75914D01*
X258392Y75496D01*
X258525Y75075D01*
X258648Y74651D01*
X258761Y74224D01*
X258863Y73794D01*
X258954Y73362D01*
X259035Y72927D01*
X259105Y72491D01*
X259165Y72053D01*
X259213Y71614D01*
X259251Y71174D01*
X259278Y70733D01*
X259295Y70292D01*
X259300Y69850D01*
X259295Y69408D01*
X259278Y68967D01*
X259251Y68526D01*
X259213Y68086D01*
X259165Y67647D01*
X259105Y67209D01*
X259035Y66773D01*
X258954Y66338D01*
X258863Y65906D01*
X258761Y65476D01*
X258648Y65049D01*
X258525Y64625D01*
X258392Y64204D01*
X258248Y63786D01*
X258094Y63372D01*
X257930Y62962D01*
X257756Y62556D01*
X257572Y62154D01*
X257378Y61757D01*
X257175Y61365D01*
X256962Y60978D01*
X256739Y60596D01*
X256507Y60220D01*
X256266Y59850D01*
X256017Y59485D01*
X255758Y59127D01*
X255490Y58776D01*
X255214Y58431D01*
X254930Y58093D01*
X254637Y57762D01*
X254336Y57438D01*
X254028Y57122D01*
X253712Y56814D01*
X253388Y56513D01*
X253057Y56220D01*
X252719Y55936D01*
X252374Y55660D01*
X252023Y55392D01*
X251665Y55133D01*
X251300Y54884D01*
X250930Y54643D01*
X250554Y54411D01*
X250172Y54188D01*
X249785Y53975D01*
X249393Y53772D01*
X248996Y53578D01*
X248594Y53394D01*
X248188Y53220D01*
X247778Y53056D01*
X247364Y52902D01*
X246946Y52758D01*
X246525Y52625D01*
X246101Y52502D01*
X245674Y52389D01*
X245244Y52287D01*
X244812Y52196D01*
X244377Y52115D01*
X243941Y52045D01*
X243503Y51985D01*
X243064Y51937D01*
X242624Y51899D01*
X242183Y51872D01*
X241742Y51855D01*
X241300Y51850D01*
X240858Y51855D01*
X240417Y51872D01*
X239976Y51899D01*
X239536Y51937D01*
X239097Y51985D01*
X238659Y52045D01*
X238223Y52115D01*
X237788Y52196D01*
X237356Y52287D01*
X236926Y52389D01*
X236499Y52502D01*
X236075Y52625D01*
X235654Y52758D01*
X235236Y52902D01*
X234822Y53056D01*
X234412Y53220D01*
X234006Y53394D01*
X233604Y53578D01*
X233207Y53772D01*
X232815Y53975D01*
X232428Y54188D01*
X232046Y54411D01*
X231670Y54643D01*
X231300Y54884D01*
X230935Y55133D01*
X230577Y55392D01*
X230226Y55660D01*
X229881Y55936D01*
X229543Y56220D01*
X229212Y56513D01*
X228888Y56814D01*
X228572Y57122D01*
X228264Y57438D01*
X227963Y57762D01*
X227670Y58093D01*
X227386Y58431D01*
X227110Y58776D01*
X226842Y59127D01*
X226583Y59485D01*
X226334Y59850D01*
X226093Y60220D01*
X225861Y60596D01*
X225638Y60978D01*
X225425Y61365D01*
X225222Y61757D01*
X225028Y62154D01*
X224844Y62556D01*
X224670Y62962D01*
X224506Y63372D01*
X224352Y63786D01*
X224208Y64204D01*
X224075Y64625D01*
X223952Y65049D01*
X223839Y65476D01*
X223737Y65906D01*
X223646Y66338D01*
X223565Y66773D01*
X223495Y67209D01*
X223435Y67647D01*
X223387Y68086D01*
X223349Y68526D01*
X223322Y68967D01*
X223305Y69408D01*
X223300Y69850D01*
X22885Y108620D02*
X6385Y108620D01*
X6385Y147120D01*
X19885Y160620D01*
X22885Y160620D01*
X41885Y160620D02*
X44885Y160620D01*
X58385Y147120D01*
X58385Y108620D01*
X41885Y108620D01*
D15*
X-1825Y114388D02*
X-2927Y113287D01*
X-2927Y111084D01*
X-1825Y109982D01*
X2581Y109982D01*
X3683Y111084D01*
X3683Y113287D01*
X2581Y114388D01*
X3683Y120771D02*
X-2927Y120771D01*
X378Y117466D01*
X378Y121873D01*
D16*
X208915Y122047D03*
D15*
X200533Y108077D02*
X193923Y108077D01*
X200533Y108077D02*
X200533Y111382D01*
X199431Y112483D01*
X195025Y112483D01*
X193923Y111382D01*
X193923Y108077D01*
X200533Y115561D02*
X200533Y119968D01*
X196127Y119968D02*
X200533Y115561D01*
X196127Y119968D02*
X195025Y119968D01*
X193923Y118866D01*
X193923Y116663D01*
X195025Y115561D01*
D16*
X196850Y117983D03*
D15*
X205226Y118509D02*
X211836Y118509D01*
X211836Y121814D01*
X210734Y122915D01*
X206328Y122915D01*
X205226Y121814D01*
X205226Y118509D01*
X207430Y125993D02*
X205226Y128196D01*
X211836Y128196D01*
X211836Y125993D02*
X211836Y130399D01*
D16*
X184785Y122047D03*
D15*
X176403Y108077D02*
X169793Y108077D01*
X176403Y108077D02*
X176403Y111382D01*
X175301Y112483D01*
X170895Y112483D01*
X169793Y111382D01*
X169793Y108077D01*
X170895Y115561D02*
X169793Y116663D01*
X169793Y118866D01*
X170895Y119968D01*
X171997Y119968D01*
X173098Y118866D01*
X173098Y117764D01*
X173098Y118866D02*
X174200Y119968D01*
X175301Y119968D01*
X176403Y118866D01*
X176403Y116663D01*
X175301Y115561D01*
D14*
X174675Y90835D02*
X174675Y62835D01*
X212675Y62835D02*
X212675Y90835D01*
D15*
X195469Y60079D02*
X195469Y53469D01*
X195469Y60079D02*
X198774Y60079D01*
X199875Y58977D01*
X199875Y56774D01*
X198774Y55672D01*
X195469Y55672D01*
X197672Y55672D02*
X199875Y53469D01*
X202953Y60079D02*
X207359Y60079D01*
X202953Y60079D02*
X202953Y56774D01*
X205156Y57875D01*
X206258Y57875D01*
X207359Y56774D01*
X207359Y54571D01*
X206258Y53469D01*
X204054Y53469D01*
X202953Y54571D01*
D10*
X58420Y93790D02*
X58420Y101790D01*
D15*
X30840Y97202D02*
X29739Y98304D01*
X27535Y98304D01*
X26434Y97202D01*
X26434Y92796D01*
X27535Y91694D01*
X29739Y91694D01*
X30840Y92796D01*
X33918Y98304D02*
X38324Y98304D01*
X33918Y98304D02*
X33918Y94999D01*
X36121Y96100D01*
X37223Y96100D01*
X38324Y94999D01*
X38324Y92796D01*
X37223Y91694D01*
X35019Y91694D01*
X33918Y92796D01*
D14*
X112160Y141920D02*
X112160Y146920D01*
X117160Y146920D01*
X157160Y146920D02*
X162160Y146920D01*
X162160Y141920D01*
X162160Y96920D02*
X157160Y96920D01*
X162160Y96920D02*
X162160Y101920D01*
X117160Y96920D02*
X112160Y96920D01*
X112160Y101920D01*
D17*
X100660Y148920D02*
X100662Y149019D01*
X100668Y149119D01*
X100678Y149218D01*
X100692Y149316D01*
X100709Y149414D01*
X100731Y149511D01*
X100756Y149607D01*
X100785Y149702D01*
X100818Y149796D01*
X100855Y149888D01*
X100895Y149979D01*
X100939Y150068D01*
X100987Y150156D01*
X101038Y150241D01*
X101092Y150324D01*
X101149Y150406D01*
X101210Y150484D01*
X101274Y150561D01*
X101340Y150634D01*
X101410Y150705D01*
X101482Y150773D01*
X101557Y150839D01*
X101635Y150901D01*
X101715Y150960D01*
X101797Y151016D01*
X101881Y151068D01*
X101968Y151117D01*
X102056Y151163D01*
X102146Y151205D01*
X102238Y151244D01*
X102331Y151279D01*
X102425Y151310D01*
X102521Y151337D01*
X102618Y151360D01*
X102715Y151380D01*
X102813Y151396D01*
X102912Y151408D01*
X103011Y151416D01*
X103110Y151420D01*
X103210Y151420D01*
X103309Y151416D01*
X103408Y151408D01*
X103507Y151396D01*
X103605Y151380D01*
X103702Y151360D01*
X103799Y151337D01*
X103895Y151310D01*
X103989Y151279D01*
X104082Y151244D01*
X104174Y151205D01*
X104264Y151163D01*
X104352Y151117D01*
X104439Y151068D01*
X104523Y151016D01*
X104605Y150960D01*
X104685Y150901D01*
X104763Y150839D01*
X104838Y150773D01*
X104910Y150705D01*
X104980Y150634D01*
X105046Y150561D01*
X105110Y150484D01*
X105171Y150406D01*
X105228Y150324D01*
X105282Y150241D01*
X105333Y150156D01*
X105381Y150068D01*
X105425Y149979D01*
X105465Y149888D01*
X105502Y149796D01*
X105535Y149702D01*
X105564Y149607D01*
X105589Y149511D01*
X105611Y149414D01*
X105628Y149316D01*
X105642Y149218D01*
X105652Y149119D01*
X105658Y149019D01*
X105660Y148920D01*
X105658Y148821D01*
X105652Y148721D01*
X105642Y148622D01*
X105628Y148524D01*
X105611Y148426D01*
X105589Y148329D01*
X105564Y148233D01*
X105535Y148138D01*
X105502Y148044D01*
X105465Y147952D01*
X105425Y147861D01*
X105381Y147772D01*
X105333Y147684D01*
X105282Y147599D01*
X105228Y147516D01*
X105171Y147434D01*
X105110Y147356D01*
X105046Y147279D01*
X104980Y147206D01*
X104910Y147135D01*
X104838Y147067D01*
X104763Y147001D01*
X104685Y146939D01*
X104605Y146880D01*
X104523Y146824D01*
X104439Y146772D01*
X104352Y146723D01*
X104264Y146677D01*
X104174Y146635D01*
X104082Y146596D01*
X103989Y146561D01*
X103895Y146530D01*
X103799Y146503D01*
X103702Y146480D01*
X103605Y146460D01*
X103507Y146444D01*
X103408Y146432D01*
X103309Y146424D01*
X103210Y146420D01*
X103110Y146420D01*
X103011Y146424D01*
X102912Y146432D01*
X102813Y146444D01*
X102715Y146460D01*
X102618Y146480D01*
X102521Y146503D01*
X102425Y146530D01*
X102331Y146561D01*
X102238Y146596D01*
X102146Y146635D01*
X102056Y146677D01*
X101968Y146723D01*
X101881Y146772D01*
X101797Y146824D01*
X101715Y146880D01*
X101635Y146939D01*
X101557Y147001D01*
X101482Y147067D01*
X101410Y147135D01*
X101340Y147206D01*
X101274Y147279D01*
X101210Y147356D01*
X101149Y147434D01*
X101092Y147516D01*
X101038Y147599D01*
X100987Y147684D01*
X100939Y147772D01*
X100895Y147861D01*
X100855Y147952D01*
X100818Y148044D01*
X100785Y148138D01*
X100756Y148233D01*
X100731Y148329D01*
X100709Y148426D01*
X100692Y148524D01*
X100678Y148622D01*
X100668Y148721D01*
X100662Y148821D01*
X100660Y148920D01*
D15*
X117328Y157682D02*
X112922Y164292D01*
X117328Y164292D02*
X112922Y157682D01*
X120406Y162088D02*
X122609Y164292D01*
X122609Y157682D01*
X120406Y157682D02*
X124813Y157682D01*
D18*
X113600Y85733D02*
X113600Y82174D01*
X112414Y85733D02*
X114787Y85733D01*
X116156Y85733D02*
X116156Y82174D01*
X117342Y84547D02*
X116156Y85733D01*
X117342Y84547D02*
X118529Y85733D01*
X118529Y82174D01*
X121678Y85733D02*
X122271Y85140D01*
X121678Y85733D02*
X120491Y85733D01*
X119898Y85140D01*
X119898Y82767D01*
X120491Y82174D01*
X121678Y82174D01*
X122271Y82767D01*
X123640Y82174D02*
X126013Y82174D01*
X123640Y82174D02*
X126013Y84547D01*
X126013Y85140D01*
X125420Y85733D01*
X124233Y85733D01*
X123640Y85140D01*
X127382Y82174D02*
X129755Y82174D01*
X127382Y82174D02*
X129755Y84547D01*
X129755Y85140D01*
X129162Y85733D01*
X127975Y85733D01*
X127382Y85140D01*
X131124Y85140D02*
X131124Y82767D01*
X131124Y85140D02*
X131717Y85733D01*
X132904Y85733D01*
X133497Y85140D01*
X133497Y82767D01*
X132904Y82174D01*
X131717Y82174D01*
X131124Y82767D01*
X133497Y85140D01*
X134866Y82767D02*
X135460Y82174D01*
X136646Y82174D01*
X137239Y82767D01*
X137239Y85140D01*
X136646Y85733D01*
X135460Y85733D01*
X134866Y85140D01*
X134866Y84547D01*
X135460Y83954D01*
X137239Y83954D01*
X138608Y81581D02*
X140981Y81581D01*
X142351Y82767D02*
X142351Y85140D01*
X142944Y85733D01*
X144130Y85733D01*
X144723Y85140D01*
X144723Y82767D01*
X144130Y82174D01*
X142944Y82174D01*
X142351Y82767D01*
X143537Y83360D02*
X144723Y82174D01*
X146093Y82174D02*
X146093Y85733D01*
X148465Y85733D01*
X147279Y83954D02*
X146093Y83954D01*
X149835Y82174D02*
X149835Y85733D01*
X152207Y82174D01*
X152207Y85733D01*
D10*
X102235Y66040D02*
X102235Y55880D01*
D15*
X126622Y67062D02*
X127723Y65960D01*
X126622Y67062D02*
X124419Y67062D01*
X123317Y65960D01*
X123317Y61554D01*
X124419Y60452D01*
X126622Y60452D01*
X127723Y61554D01*
X133004Y65960D02*
X135208Y67062D01*
X133004Y65960D02*
X130801Y63757D01*
X130801Y61554D01*
X131903Y60452D01*
X134106Y60452D01*
X135208Y61554D01*
X135208Y62655D01*
X134106Y63757D01*
X130801Y63757D01*
D14*
X73660Y59690D02*
X73660Y87630D01*
X55880Y90170D02*
X55780Y90168D01*
X55681Y90162D01*
X55581Y90152D01*
X55483Y90139D01*
X55384Y90121D01*
X55287Y90100D01*
X55191Y90075D01*
X55095Y90046D01*
X55001Y90013D01*
X54908Y89977D01*
X54817Y89937D01*
X54727Y89893D01*
X54639Y89846D01*
X54553Y89796D01*
X54469Y89742D01*
X54387Y89685D01*
X54308Y89625D01*
X54230Y89561D01*
X54156Y89495D01*
X54084Y89426D01*
X54015Y89354D01*
X53949Y89280D01*
X53885Y89202D01*
X53825Y89123D01*
X53768Y89041D01*
X53714Y88957D01*
X53664Y88871D01*
X53617Y88783D01*
X53573Y88693D01*
X53533Y88602D01*
X53497Y88509D01*
X53464Y88415D01*
X53435Y88319D01*
X53410Y88223D01*
X53389Y88126D01*
X53371Y88027D01*
X53358Y87929D01*
X53348Y87829D01*
X53342Y87730D01*
X53340Y87630D01*
X53340Y59690D02*
X53342Y59590D01*
X53348Y59491D01*
X53358Y59391D01*
X53371Y59293D01*
X53389Y59194D01*
X53410Y59097D01*
X53435Y59001D01*
X53464Y58905D01*
X53497Y58811D01*
X53533Y58718D01*
X53573Y58627D01*
X53617Y58537D01*
X53664Y58449D01*
X53714Y58363D01*
X53768Y58279D01*
X53825Y58197D01*
X53885Y58118D01*
X53949Y58040D01*
X54015Y57966D01*
X54084Y57894D01*
X54156Y57825D01*
X54230Y57759D01*
X54308Y57695D01*
X54387Y57635D01*
X54469Y57578D01*
X54553Y57524D01*
X54639Y57474D01*
X54727Y57427D01*
X54817Y57383D01*
X54908Y57343D01*
X55001Y57307D01*
X55095Y57274D01*
X55191Y57245D01*
X55287Y57220D01*
X55384Y57199D01*
X55483Y57181D01*
X55581Y57168D01*
X55681Y57158D01*
X55780Y57152D01*
X55880Y57150D01*
X71120Y57150D02*
X71220Y57152D01*
X71319Y57158D01*
X71419Y57168D01*
X71517Y57181D01*
X71616Y57199D01*
X71713Y57220D01*
X71809Y57245D01*
X71905Y57274D01*
X71999Y57307D01*
X72092Y57343D01*
X72183Y57383D01*
X72273Y57427D01*
X72361Y57474D01*
X72447Y57524D01*
X72531Y57578D01*
X72613Y57635D01*
X72692Y57695D01*
X72770Y57759D01*
X72844Y57825D01*
X72916Y57894D01*
X72985Y57966D01*
X73051Y58040D01*
X73115Y58118D01*
X73175Y58197D01*
X73232Y58279D01*
X73286Y58363D01*
X73336Y58449D01*
X73383Y58537D01*
X73427Y58627D01*
X73467Y58718D01*
X73503Y58811D01*
X73536Y58905D01*
X73565Y59001D01*
X73590Y59097D01*
X73611Y59194D01*
X73629Y59293D01*
X73642Y59391D01*
X73652Y59491D01*
X73658Y59590D01*
X73660Y59690D01*
X73660Y87630D02*
X73658Y87730D01*
X73652Y87829D01*
X73642Y87929D01*
X73629Y88027D01*
X73611Y88126D01*
X73590Y88223D01*
X73565Y88319D01*
X73536Y88415D01*
X73503Y88509D01*
X73467Y88602D01*
X73427Y88693D01*
X73383Y88783D01*
X73336Y88871D01*
X73286Y88957D01*
X73232Y89041D01*
X73175Y89123D01*
X73115Y89202D01*
X73051Y89280D01*
X72985Y89354D01*
X72916Y89426D01*
X72844Y89495D01*
X72770Y89561D01*
X72692Y89625D01*
X72613Y89685D01*
X72531Y89742D01*
X72447Y89796D01*
X72361Y89846D01*
X72273Y89893D01*
X72183Y89937D01*
X72092Y89977D01*
X71999Y90013D01*
X71905Y90046D01*
X71809Y90075D01*
X71713Y90100D01*
X71616Y90121D01*
X71517Y90139D01*
X71419Y90152D01*
X71319Y90162D01*
X71220Y90168D01*
X71120Y90170D01*
X55880Y90170D01*
X55880Y57150D02*
X71120Y57150D01*
X53340Y59690D02*
X53340Y87630D01*
D15*
X44530Y61048D02*
X43428Y59947D01*
X43428Y57744D01*
X44530Y56642D01*
X45632Y56642D01*
X46733Y57744D01*
X46733Y59947D01*
X47835Y61048D01*
X48936Y61048D01*
X50038Y59947D01*
X50038Y57744D01*
X48936Y56642D01*
X48936Y64126D02*
X50038Y65228D01*
X50038Y66329D01*
X48936Y67431D01*
X43428Y67431D01*
X43428Y66329D02*
X43428Y68533D01*
X45632Y71610D02*
X43428Y73814D01*
X50038Y73814D01*
X50038Y76017D02*
X50038Y71610D01*
M02*
