G04 EAGLE Gerber RS-274X export*
G75*
%MOMM*%
%FSLAX34Y34*%
%LPD*%
%INSoldermask Top*%
%IPPOS*%
%AMOC8*
5,1,8,0,0,1.08239X$1,22.5*%
G01*
%ADD10R,1.176600X1.101600*%
%ADD11R,1.401600X2.101600*%
%ADD12R,2.101600X2.101600*%
%ADD13C,0.601600*%
%ADD14C,0.250000*%
%ADD15C,3.317600*%
%ADD16R,1.601600X1.341600*%
%ADD17C,1.879600*%
%ADD18C,1.609600*%
%ADD19R,1.101600X1.176600*%
%ADD20R,1.501600X2.701600*%
%ADD21R,0.901600X0.901600*%
%ADD22R,0.551600X1.001600*%
%ADD23R,0.951600X0.371600*%
%ADD24R,0.371600X0.951600*%
%ADD25R,3.451600X3.451600*%
%ADD26R,1.341600X1.601600*%
%ADD27R,1.651000X2.921000*%


D10*
X72780Y116840D03*
X89780Y116840D03*
X72780Y148590D03*
X89780Y148590D03*
X205350Y148590D03*
X188350Y148590D03*
X98670Y85090D03*
X81670Y85090D03*
X81035Y100330D03*
X98035Y100330D03*
D11*
X226760Y117160D03*
X250760Y117160D03*
D12*
X238760Y156160D03*
D10*
X244720Y99060D03*
X227720Y99060D03*
D13*
X220726Y233172D03*
D14*
X220726Y237922D02*
X220590Y237920D01*
X220455Y237914D01*
X220320Y237905D01*
X220185Y237891D01*
X220050Y237874D01*
X219916Y237852D01*
X219783Y237827D01*
X219650Y237799D01*
X219518Y237766D01*
X219388Y237730D01*
X219258Y237690D01*
X219130Y237646D01*
X219003Y237598D01*
X218877Y237547D01*
X218753Y237493D01*
X218630Y237435D01*
X218509Y237373D01*
X218390Y237308D01*
X218273Y237240D01*
X218158Y237168D01*
X218045Y237093D01*
X217934Y237015D01*
X217825Y236934D01*
X217719Y236849D01*
X217615Y236762D01*
X217514Y236672D01*
X217416Y236578D01*
X217320Y236482D01*
X217226Y236384D01*
X217136Y236283D01*
X217049Y236179D01*
X216964Y236073D01*
X216883Y235964D01*
X216805Y235853D01*
X216730Y235740D01*
X216658Y235625D01*
X216590Y235508D01*
X216525Y235389D01*
X216463Y235268D01*
X216405Y235145D01*
X216351Y235021D01*
X216300Y234895D01*
X216252Y234768D01*
X216208Y234640D01*
X216168Y234510D01*
X216132Y234380D01*
X216099Y234248D01*
X216071Y234115D01*
X216046Y233982D01*
X216024Y233848D01*
X216007Y233713D01*
X215993Y233578D01*
X215984Y233443D01*
X215978Y233308D01*
X215976Y233172D01*
X220726Y237922D02*
X220863Y237917D01*
X220999Y237908D01*
X221135Y237895D01*
X221271Y237878D01*
X221406Y237857D01*
X221541Y237833D01*
X221675Y237804D01*
X221808Y237772D01*
X221940Y237737D01*
X222071Y237697D01*
X222201Y237654D01*
X222329Y237608D01*
X222456Y237557D01*
X222582Y237503D01*
X222706Y237446D01*
X222829Y237385D01*
X222950Y237321D01*
X223069Y237254D01*
X223186Y237183D01*
X223301Y237109D01*
X223414Y237031D01*
X223524Y236951D01*
X223633Y236867D01*
X223738Y236781D01*
X223842Y236691D01*
X223943Y236599D01*
X224041Y236504D01*
X224137Y236406D01*
X224230Y236306D01*
X224320Y236202D01*
X224407Y236097D01*
X224491Y235989D01*
X224572Y235879D01*
X224650Y235766D01*
X224724Y235652D01*
X224796Y235535D01*
X224864Y235416D01*
X224929Y235296D01*
X224990Y235174D01*
X225048Y235050D01*
X225102Y234924D01*
X225153Y234797D01*
X225200Y234669D01*
X225244Y234539D01*
X225284Y234408D01*
X225320Y234277D01*
X225353Y234144D01*
X225382Y234010D01*
X225407Y233876D01*
X225428Y233740D01*
X225446Y233605D01*
X225460Y233469D01*
X225470Y233332D01*
X225476Y233196D01*
X225478Y233059D01*
X225476Y232922D01*
X225471Y232788D01*
X225461Y232653D01*
X225448Y232519D01*
X225431Y232386D01*
X225409Y232253D01*
X225384Y232121D01*
X225355Y231989D01*
X225323Y231859D01*
X225286Y231729D01*
X225246Y231601D01*
X225202Y231473D01*
X225155Y231348D01*
X225103Y231223D01*
X225049Y231100D01*
X224990Y230979D01*
X224928Y230859D01*
X224863Y230742D01*
X224794Y230626D01*
X224722Y230512D01*
X224647Y230401D01*
X224568Y230292D01*
X224486Y230185D01*
X224402Y230080D01*
X224314Y229978D01*
X224223Y229879D01*
X224130Y229782D01*
X224033Y229688D01*
X223934Y229597D01*
X223833Y229509D01*
X223728Y229423D01*
X223622Y229341D01*
X223513Y229262D01*
X223402Y229186D01*
X223288Y229114D01*
X223173Y229045D01*
X223055Y228979D01*
X222936Y228916D01*
X222815Y228858D01*
X222692Y228802D01*
X222568Y228750D01*
X222443Y228702D01*
X222315Y228658D01*
X222187Y228617D01*
X222058Y228580D01*
X221927Y228547D01*
X221796Y228518D01*
X221664Y228492D01*
X221531Y228470D01*
X221398Y228452D01*
X221264Y228438D01*
X221130Y228428D01*
X220995Y228422D01*
X220861Y228420D01*
X220726Y228422D01*
X220590Y228424D01*
X220455Y228430D01*
X220320Y228439D01*
X220185Y228453D01*
X220050Y228470D01*
X219916Y228492D01*
X219783Y228517D01*
X219650Y228545D01*
X219518Y228578D01*
X219388Y228614D01*
X219258Y228654D01*
X219130Y228698D01*
X219003Y228746D01*
X218877Y228797D01*
X218753Y228851D01*
X218630Y228909D01*
X218509Y228971D01*
X218390Y229036D01*
X218273Y229104D01*
X218158Y229176D01*
X218045Y229251D01*
X217934Y229329D01*
X217825Y229410D01*
X217719Y229495D01*
X217615Y229582D01*
X217514Y229672D01*
X217416Y229766D01*
X217320Y229862D01*
X217226Y229960D01*
X217136Y230061D01*
X217049Y230165D01*
X216964Y230271D01*
X216883Y230380D01*
X216805Y230491D01*
X216730Y230604D01*
X216658Y230719D01*
X216590Y230836D01*
X216525Y230955D01*
X216463Y231076D01*
X216405Y231199D01*
X216351Y231323D01*
X216300Y231449D01*
X216252Y231576D01*
X216208Y231704D01*
X216168Y231834D01*
X216132Y231964D01*
X216099Y232096D01*
X216071Y232229D01*
X216046Y232362D01*
X216024Y232496D01*
X216007Y232631D01*
X215993Y232766D01*
X215984Y232901D01*
X215978Y233036D01*
X215976Y233172D01*
D13*
X8890Y95250D03*
D14*
X8890Y100000D02*
X8754Y99998D01*
X8619Y99992D01*
X8484Y99983D01*
X8349Y99969D01*
X8214Y99952D01*
X8080Y99930D01*
X7947Y99905D01*
X7814Y99877D01*
X7682Y99844D01*
X7552Y99808D01*
X7422Y99768D01*
X7294Y99724D01*
X7167Y99676D01*
X7041Y99625D01*
X6917Y99571D01*
X6794Y99513D01*
X6673Y99451D01*
X6554Y99386D01*
X6437Y99318D01*
X6322Y99246D01*
X6209Y99171D01*
X6098Y99093D01*
X5989Y99012D01*
X5883Y98927D01*
X5779Y98840D01*
X5678Y98750D01*
X5580Y98656D01*
X5484Y98560D01*
X5390Y98462D01*
X5300Y98361D01*
X5213Y98257D01*
X5128Y98151D01*
X5047Y98042D01*
X4969Y97931D01*
X4894Y97818D01*
X4822Y97703D01*
X4754Y97586D01*
X4689Y97467D01*
X4627Y97346D01*
X4569Y97223D01*
X4515Y97099D01*
X4464Y96973D01*
X4416Y96846D01*
X4372Y96718D01*
X4332Y96588D01*
X4296Y96458D01*
X4263Y96326D01*
X4235Y96193D01*
X4210Y96060D01*
X4188Y95926D01*
X4171Y95791D01*
X4157Y95656D01*
X4148Y95521D01*
X4142Y95386D01*
X4140Y95250D01*
X8890Y100000D02*
X9027Y99995D01*
X9163Y99986D01*
X9299Y99973D01*
X9435Y99956D01*
X9570Y99935D01*
X9705Y99911D01*
X9839Y99882D01*
X9972Y99850D01*
X10104Y99815D01*
X10235Y99775D01*
X10365Y99732D01*
X10493Y99686D01*
X10620Y99635D01*
X10746Y99581D01*
X10870Y99524D01*
X10993Y99463D01*
X11114Y99399D01*
X11233Y99332D01*
X11350Y99261D01*
X11465Y99187D01*
X11578Y99109D01*
X11688Y99029D01*
X11797Y98945D01*
X11902Y98859D01*
X12006Y98769D01*
X12107Y98677D01*
X12205Y98582D01*
X12301Y98484D01*
X12394Y98384D01*
X12484Y98280D01*
X12571Y98175D01*
X12655Y98067D01*
X12736Y97957D01*
X12814Y97844D01*
X12888Y97730D01*
X12960Y97613D01*
X13028Y97494D01*
X13093Y97374D01*
X13154Y97252D01*
X13212Y97128D01*
X13266Y97002D01*
X13317Y96875D01*
X13364Y96747D01*
X13408Y96617D01*
X13448Y96486D01*
X13484Y96355D01*
X13517Y96222D01*
X13546Y96088D01*
X13571Y95954D01*
X13592Y95818D01*
X13610Y95683D01*
X13624Y95547D01*
X13634Y95410D01*
X13640Y95274D01*
X13642Y95137D01*
X13640Y95000D01*
X13635Y94866D01*
X13625Y94731D01*
X13612Y94597D01*
X13595Y94464D01*
X13573Y94331D01*
X13548Y94199D01*
X13519Y94067D01*
X13487Y93937D01*
X13450Y93807D01*
X13410Y93679D01*
X13366Y93551D01*
X13319Y93426D01*
X13267Y93301D01*
X13213Y93178D01*
X13154Y93057D01*
X13092Y92937D01*
X13027Y92820D01*
X12958Y92704D01*
X12886Y92590D01*
X12811Y92479D01*
X12732Y92370D01*
X12650Y92263D01*
X12566Y92158D01*
X12478Y92056D01*
X12387Y91957D01*
X12294Y91860D01*
X12197Y91766D01*
X12098Y91675D01*
X11997Y91587D01*
X11892Y91501D01*
X11786Y91419D01*
X11677Y91340D01*
X11566Y91264D01*
X11452Y91192D01*
X11337Y91123D01*
X11219Y91057D01*
X11100Y90994D01*
X10979Y90936D01*
X10856Y90880D01*
X10732Y90828D01*
X10607Y90780D01*
X10479Y90736D01*
X10351Y90695D01*
X10222Y90658D01*
X10091Y90625D01*
X9960Y90596D01*
X9828Y90570D01*
X9695Y90548D01*
X9562Y90530D01*
X9428Y90516D01*
X9294Y90506D01*
X9159Y90500D01*
X9025Y90498D01*
X8890Y90500D01*
X8754Y90502D01*
X8619Y90508D01*
X8484Y90517D01*
X8349Y90531D01*
X8214Y90548D01*
X8080Y90570D01*
X7947Y90595D01*
X7814Y90623D01*
X7682Y90656D01*
X7552Y90692D01*
X7422Y90732D01*
X7294Y90776D01*
X7167Y90824D01*
X7041Y90875D01*
X6917Y90929D01*
X6794Y90987D01*
X6673Y91049D01*
X6554Y91114D01*
X6437Y91182D01*
X6322Y91254D01*
X6209Y91329D01*
X6098Y91407D01*
X5989Y91488D01*
X5883Y91573D01*
X5779Y91660D01*
X5678Y91750D01*
X5580Y91844D01*
X5484Y91940D01*
X5390Y92038D01*
X5300Y92139D01*
X5213Y92243D01*
X5128Y92349D01*
X5047Y92458D01*
X4969Y92569D01*
X4894Y92682D01*
X4822Y92797D01*
X4754Y92914D01*
X4689Y93033D01*
X4627Y93154D01*
X4569Y93277D01*
X4515Y93401D01*
X4464Y93527D01*
X4416Y93654D01*
X4372Y93782D01*
X4332Y93912D01*
X4296Y94042D01*
X4263Y94174D01*
X4235Y94307D01*
X4210Y94440D01*
X4188Y94574D01*
X4171Y94709D01*
X4157Y94844D01*
X4148Y94979D01*
X4142Y95114D01*
X4140Y95250D01*
D15*
X25400Y215900D03*
X241300Y215900D03*
D16*
X162560Y54000D03*
X162560Y73000D03*
D17*
X19050Y25400D03*
X44450Y25400D03*
X69850Y25400D03*
X95250Y25400D03*
X120650Y25400D03*
X146050Y25400D03*
X171450Y25400D03*
X196850Y25400D03*
X222250Y25400D03*
X247650Y25400D03*
D18*
X196850Y195660D02*
X196850Y210740D01*
X171450Y210740D02*
X171450Y195660D01*
X146050Y195660D02*
X146050Y210740D01*
X120650Y210740D02*
X120650Y195660D01*
X95250Y195660D02*
X95250Y210740D01*
X69850Y210740D02*
X69850Y195660D01*
D19*
X145415Y53730D03*
X145415Y70730D03*
D10*
X72780Y133350D03*
X89780Y133350D03*
D15*
X25400Y69850D03*
X241300Y69850D03*
D20*
X32385Y114120D03*
X32385Y155120D03*
D21*
X208915Y127515D03*
X208915Y112515D03*
X196850Y112515D03*
X196850Y127515D03*
X184785Y127515D03*
X184785Y112515D03*
D22*
X206675Y68335D03*
X206675Y85335D03*
X197675Y68335D03*
X189675Y68335D03*
X180675Y68335D03*
X180675Y85335D03*
X197675Y85335D03*
X189675Y85335D03*
D10*
X66920Y97790D03*
X49920Y97790D03*
D23*
X113160Y136920D03*
X113160Y131920D03*
X113160Y126920D03*
X113160Y121920D03*
X113160Y116920D03*
X113160Y111920D03*
X113160Y106920D03*
D24*
X122160Y97920D03*
X127160Y97920D03*
X132160Y97920D03*
X137160Y97920D03*
X142160Y97920D03*
X147160Y97920D03*
X152160Y97920D03*
D23*
X161160Y106920D03*
X161160Y111920D03*
X161160Y116920D03*
X161160Y121920D03*
X161160Y126920D03*
X161160Y131920D03*
X161160Y136920D03*
D24*
X152160Y145920D03*
X147160Y145920D03*
X142160Y145920D03*
X137160Y145920D03*
X132160Y145920D03*
X127160Y145920D03*
X122160Y145920D03*
D25*
X137160Y121920D03*
D26*
X92735Y60960D03*
X111735Y60960D03*
D27*
X63500Y73660D03*
M02*
