M48
;GenerationSoftware,Autodesk,EAGLE,9.6.2*%
;CreationDate,2025-02-09T16:48:10Z*%
FMAT,2
ICI,OFF
METRIC,TZ,000.000
T4C0.394
T3C0.500
T2C1.000
T1C2.200
%
G90
M71
T1
X2540Y21590
X24130Y21590
X24130Y6985
X2540Y6985
T2
X4445Y2540
X1905Y2540
X6985Y2540
X9525Y2540
X12065Y2540
X14605Y2540
X17145Y2540
X19685Y2540
X22225Y2540
X19685Y20320
X17145Y20320
X14605Y20320
X12065Y20320
X9525Y20320
X6985Y20320
X24765Y2540
T3
X11430Y14795
X16129Y14795
T4
X4636Y8509
X3302Y9398
X1651Y11430
X1778Y13144
X2540Y18479
X5271Y15303
X7937Y17653
X6223Y12509
X4953Y6413
X17145Y12692
X12446Y12192
X12509Y15881
X8191Y15938
X15938Y15938
X18733Y15938
X16891Y8890
X17717Y5271
X5334Y13416
X14941Y8223
X9497Y4727
X11176Y4255
X21654Y9843
X19812Y5651
X12446Y10985
X13779Y10985
X13716Y12192
X13716Y13462
X12446Y13462
X14986Y13462
X14986Y12192
X14986Y10922
X19622Y13779
X21463Y16192
X10313Y12936
X23876Y13716
X25654Y15303
X25527Y13525
X21907Y8636
X21781Y6286
X25463Y4382
X8763Y3937
X7493Y4826
M30